<?xml version="1.0" encoding="UTF-8" standalone="no"?>
<!DOCTYPE svg PUBLIC "-//W3C//DTD SVG 1.1//EN"
 "http://www.w3.org/Graphics/SVG/1.1/DTD/svg11.dtd">
<!-- Generated by graphviz version 2.40.1 (20161225.0304)
 -->
<!-- Title: dependencies Pages: 1 -->
<svg width="1664pt" height="284pt"
 viewBox="0.00 0.00 1664.00 284.00" xmlns="http://www.w3.org/2000/svg" xmlns:xlink="http://www.w3.org/1999/xlink">
<g id="graph0" class="graph" transform="scale(1 1) rotate(0) translate(4 280)">
<title>dependencies</title>
<polygon fill="#ffffff" stroke="transparent" points="-4,4 -4,-280 1660,-280 1660,4 -4,4"/>
<text text-anchor="start" x="807.0091" y="-42.4" font-family="sans-serif" font-weight="bold" font-size="14.00" fill="#000000">Legend</text>
<polygon fill="#ffffb3" stroke="transparent" points="594,-10 594,-30 614,-30 614,-10 594,-10"/>
<text text-anchor="start" x="617.629" y="-15.4" font-family="sans-serif" font-size="14.00" fill="#000000"> &#160;Declarations</text>
<polygon fill="#8dd3c7" stroke="transparent" points="707,-10 707,-30 727,-30 727,-10 707,-10"/>
<text text-anchor="start" x="730.7251" y="-15.4" font-family="sans-serif" font-size="14.00" fill="#000000"> &#160;Module</text>
<polygon fill="#80b1d3" stroke="transparent" points="793,-10 793,-30 813,-30 813,-10 793,-10"/>
<text text-anchor="start" x="816.7812" y="-15.4" font-family="sans-serif" font-size="14.00" fill="#000000"> &#160;Bootstrap</text>
<polygon fill="#fdb462" stroke="transparent" points="890,-10 890,-30 910,-30 910,-10 890,-10"/>
<text text-anchor="start" x="913.6732" y="-15.4" font-family="sans-serif" font-size="14.00" fill="#000000"> &#160;Providers</text>
<polygon fill="#fb8072" stroke="transparent" points="986,-10 986,-30 1006,-30 1006,-10 986,-10"/>
<text text-anchor="start" x="1009.7258" y="-15.4" font-family="sans-serif" font-size="14.00" fill="#000000"> &#160;Exports</text>
<g id="clust1" class="cluster">
<title>cluster_SharedModule</title>
<polygon fill="none" stroke="#000000" stroke-dasharray="1,5" points="8,-70 8,-268 1648,-268 1648,-70 8,-70"/>
</g>
<g id="clust2" class="cluster">
<title>cluster_SharedModule_declarations</title>
<polygon fill="none" stroke="#000000" points="293,-78 293,-130 1640,-130 1640,-78 293,-78"/>
</g>
<g id="clust11" class="cluster">
<title>cluster_SharedModule_imports</title>
<polygon fill="none" stroke="#000000" points="16,-78 16,-130 285,-130 285,-78 16,-78"/>
</g>
<g id="clust12" class="cluster">
<title>cluster_SharedModule_exports</title>
<polygon fill="none" stroke="#000000" points="370,-208 370,-260 1150,-260 1150,-208 370,-208"/>
</g>
<!-- LoadingSpinnerComponent -->
<g id="node1" class="node">
<title>LoadingSpinnerComponent</title>
<polygon fill="#ffffb3" stroke="#000000" points="1631.5392,-122 1460.4608,-122 1460.4608,-86 1631.5392,-86 1631.5392,-122"/>
<text text-anchor="middle" x="1546" y="-99.8" font-family="Times,serif" font-size="14.00" fill="#000000">LoadingSpinnerComponent</text>
</g>
<!-- SharedModule -->
<g id="node9" class="node">
<title>SharedModule</title>
<polygon fill="#8dd3c7" stroke="#000000" points="806.4231,-187 803.4231,-191 782.4231,-191 779.4231,-187 707.5769,-187 707.5769,-151 806.4231,-151 806.4231,-187"/>
<text text-anchor="middle" x="757" y="-164.8" font-family="Times,serif" font-size="14.00" fill="#000000">SharedModule</text>
</g>
<!-- LoadingSpinnerComponent&#45;&gt;SharedModule -->
<g id="edge1" class="edge">
<title>LoadingSpinnerComponent&#45;&gt;SharedModule</title>
<path fill="none" stroke="#000000" d="M1546,-122.2228C1546,-142.3652 1546,-172 1546,-172 1546,-172 816.3555,-172 816.3555,-172"/>
<polygon fill="#000000" stroke="#000000" points="816.3555,-168.5001 806.3555,-172 816.3554,-175.5001 816.3555,-168.5001"/>
</g>
<!-- ModalConfirmComponent -->
<g id="node2" class="node">
<title>ModalConfirmComponent</title>
<polygon fill="#ffffb3" stroke="#000000" points="1442.8215,-122 1277.1785,-122 1277.1785,-86 1442.8215,-86 1442.8215,-122"/>
<text text-anchor="middle" x="1360" y="-99.8" font-family="Times,serif" font-size="14.00" fill="#000000">ModalConfirmComponent</text>
</g>
<!-- ModalConfirmComponent&#45;&gt;SharedModule -->
<g id="edge2" class="edge">
<title>ModalConfirmComponent&#45;&gt;SharedModule</title>
<path fill="none" stroke="#000000" d="M1360,-122.2222C1360,-140.8285 1360,-167 1360,-167 1360,-167 816.346,-167 816.346,-167"/>
<polygon fill="#000000" stroke="#000000" points="816.3461,-163.5001 806.346,-167 816.346,-170.5001 816.3461,-163.5001"/>
</g>
<!-- ModalInfoComponent -->
<g id="node3" class="node">
<title>ModalInfoComponent</title>
<polygon fill="#ffffb3" stroke="#000000" points="1259.7035,-122 1118.2965,-122 1118.2965,-86 1259.7035,-86 1259.7035,-122"/>
<text text-anchor="middle" x="1189" y="-99.8" font-family="Times,serif" font-size="14.00" fill="#000000">ModalInfoComponent</text>
</g>
<!-- ModalInfoComponent&#45;&gt;SharedModule -->
<g id="edge3" class="edge">
<title>ModalInfoComponent&#45;&gt;SharedModule</title>
<path fill="none" stroke="#000000" d="M1129.9588,-122.0336C1129.9588,-139.0597 1129.9588,-162 1129.9588,-162 1129.9588,-162 816.526,-162 816.526,-162"/>
<polygon fill="#000000" stroke="#000000" points="816.5261,-158.5001 806.526,-162 816.526,-165.5001 816.5261,-158.5001"/>
</g>
<!-- ModalInputComponent -->
<g id="node4" class="node">
<title>ModalInputComponent</title>
<polygon fill="#ffffb3" stroke="#000000" points="1100.934,-122 953.066,-122 953.066,-86 1100.934,-86 1100.934,-122"/>
<text text-anchor="middle" x="1027" y="-99.8" font-family="Times,serif" font-size="14.00" fill="#000000">ModalInputComponent</text>
</g>
<!-- ModalInputComponent&#45;&gt;SharedModule -->
<g id="edge4" class="edge">
<title>ModalInputComponent&#45;&gt;SharedModule</title>
<path fill="none" stroke="#000000" d="M959.882,-122.2396C959.882,-137.5706 959.882,-157 959.882,-157 959.882,-157 816.3711,-157 816.3711,-157"/>
<polygon fill="#000000" stroke="#000000" points="816.3711,-153.5001 806.3711,-157 816.3711,-160.5001 816.3711,-153.5001"/>
</g>
<!-- ModalServerErrorComponent -->
<g id="node5" class="node">
<title>ModalServerErrorComponent</title>
<polygon fill="#ffffb3" stroke="#000000" points="934.9496,-122 751.0504,-122 751.0504,-86 934.9496,-86 934.9496,-122"/>
<text text-anchor="middle" x="843" y="-99.8" font-family="Times,serif" font-size="14.00" fill="#000000">ModalServerErrorComponent</text>
</g>
<!-- ModalServerErrorComponent&#45;&gt;SharedModule -->
<g id="edge5" class="edge">
<title>ModalServerErrorComponent&#45;&gt;SharedModule</title>
<path fill="none" stroke="#000000" d="M778.6182,-122.1061C778.6182,-122.1061 778.6182,-140.991 778.6182,-140.991"/>
<polygon fill="#000000" stroke="#000000" points="775.1182,-140.9909 778.6182,-150.991 782.1182,-140.991 775.1182,-140.9909"/>
</g>
<!-- NavbarComponent -->
<g id="node6" class="node">
<title>NavbarComponent</title>
<polygon fill="#ffffb3" stroke="#000000" points="733.0297,-122 610.9703,-122 610.9703,-86 733.0297,-86 733.0297,-122"/>
<text text-anchor="middle" x="672" y="-99.8" font-family="Times,serif" font-size="14.00" fill="#000000">NavbarComponent</text>
</g>
<!-- NavbarComponent&#45;&gt;SharedModule -->
<g id="edge6" class="edge">
<title>NavbarComponent&#45;&gt;SharedModule</title>
<path fill="none" stroke="#000000" d="M720.5267,-122.1061C720.5267,-122.1061 720.5267,-140.991 720.5267,-140.991"/>
<polygon fill="#000000" stroke="#000000" points="717.0267,-140.9909 720.5267,-150.991 724.0267,-140.991 717.0267,-140.9909"/>
</g>
<!-- NotificationComponent -->
<g id="node7" class="node">
<title>NotificationComponent</title>
<polygon fill="#ffffb3" stroke="#000000" points="592.4818,-122 443.5182,-122 443.5182,-86 592.4818,-86 592.4818,-122"/>
<text text-anchor="middle" x="518" y="-99.8" font-family="Times,serif" font-size="14.00" fill="#000000">NotificationComponent</text>
</g>
<!-- NotificationComponent&#45;&gt;SharedModule -->
<g id="edge7" class="edge">
<title>NotificationComponent&#45;&gt;SharedModule</title>
<path fill="none" stroke="#000000" d="M558.125,-122.2396C558.125,-137.5706 558.125,-157 558.125,-157 558.125,-157 697.5844,-157 697.5844,-157"/>
<polygon fill="#000000" stroke="#000000" points="697.5844,-160.5001 707.5844,-157 697.5843,-153.5001 697.5844,-160.5001"/>
</g>
<!-- SidebarComponent -->
<g id="node8" class="node">
<title>SidebarComponent</title>
<polygon fill="#ffffb3" stroke="#000000" points="425.0954,-122 300.9046,-122 300.9046,-86 425.0954,-86 425.0954,-122"/>
<text text-anchor="middle" x="363" y="-99.8" font-family="Times,serif" font-size="14.00" fill="#000000">SidebarComponent</text>
</g>
<!-- SidebarComponent&#45;&gt;SharedModule -->
<g id="edge8" class="edge">
<title>SidebarComponent&#45;&gt;SharedModule</title>
<path fill="none" stroke="#000000" d="M401.625,-122.0336C401.625,-139.0597 401.625,-162 401.625,-162 401.625,-162 697.5866,-162 697.5866,-162"/>
<polygon fill="#000000" stroke="#000000" points="697.5867,-165.5001 707.5866,-162 697.5866,-158.5001 697.5867,-165.5001"/>
</g>
<!-- LoadingSpinnerComponent  -->
<g id="node12" class="node">
<title>LoadingSpinnerComponent </title>
<polygon fill="#fb8072" stroke="#000000" points="1141.5386,-252 966.4614,-252 966.4614,-216 1141.5386,-216 1141.5386,-252"/>
<text text-anchor="middle" x="1054" y="-229.8" font-family="Times,serif" font-size="14.00" fill="#000000">LoadingSpinnerComponent </text>
</g>
<!-- SharedModule&#45;&gt;LoadingSpinnerComponent  -->
<g id="edge11" class="edge">
<title>SharedModule&#45;&gt;LoadingSpinnerComponent </title>
<path fill="none" stroke="#000000" stroke-dasharray="5,2" d="M806.4503,-177C886.0099,-177 1033.5987,-177 1033.5987,-177 1033.5987,-177 1033.5987,-205.9648 1033.5987,-205.9648"/>
<polygon fill="#000000" stroke="#000000" points="1030.0988,-205.9648 1033.5987,-215.9648 1037.0988,-205.9649 1030.0988,-205.9648"/>
</g>
<!-- MaterialModule  -->
<g id="node13" class="node">
<title>MaterialModule </title>
<polygon fill="#fb8072" stroke="#000000" points="948.4716,-252 837.5284,-252 837.5284,-216 948.4716,-216 948.4716,-252"/>
<text text-anchor="middle" x="893" y="-229.8" font-family="Times,serif" font-size="14.00" fill="#000000">MaterialModule </text>
</g>
<!-- SharedModule&#45;&gt;MaterialModule  -->
<g id="edge12" class="edge">
<title>SharedModule&#45;&gt;MaterialModule </title>
<path fill="none" stroke="#000000" stroke-dasharray="5,2" d="M806.2782,-182C842.838,-182 886.3698,-182 886.3698,-182 886.3698,-182 886.3698,-205.8129 886.3698,-205.8129"/>
<polygon fill="#000000" stroke="#000000" points="882.8698,-205.8129 886.3698,-215.8129 889.8698,-205.813 882.8698,-205.8129"/>
</g>
<!-- NavbarComponent  -->
<g id="node14" class="node">
<title>NavbarComponent </title>
<polygon fill="#fb8072" stroke="#000000" points="820.0288,-252 693.9712,-252 693.9712,-216 820.0288,-216 820.0288,-252"/>
<text text-anchor="middle" x="757" y="-229.8" font-family="Times,serif" font-size="14.00" fill="#000000">NavbarComponent </text>
</g>
<!-- SharedModule&#45;&gt;NavbarComponent  -->
<g id="edge13" class="edge">
<title>SharedModule&#45;&gt;NavbarComponent </title>
<path fill="none" stroke="#000000" stroke-dasharray="5,2" d="M757,-187.1061C757,-187.1061 757,-205.991 757,-205.991"/>
<polygon fill="#000000" stroke="#000000" points="753.5001,-205.9909 757,-215.991 760.5001,-205.991 753.5001,-205.9909"/>
</g>
<!-- NotificationComponent  -->
<g id="node15" class="node">
<title>NotificationComponent </title>
<polygon fill="#fb8072" stroke="#000000" points="676.4826,-252 523.5174,-252 523.5174,-216 676.4826,-216 676.4826,-252"/>
<text text-anchor="middle" x="600" y="-229.8" font-family="Times,serif" font-size="14.00" fill="#000000">NotificationComponent </text>
</g>
<!-- SharedModule&#45;&gt;NotificationComponent  -->
<g id="edge14" class="edge">
<title>SharedModule&#45;&gt;NotificationComponent </title>
<path fill="none" stroke="#000000" stroke-dasharray="5,2" d="M707.5423,-182C676.9532,-182 643.4883,-182 643.4883,-182 643.4883,-182 643.4883,-205.8129 643.4883,-205.8129"/>
<polygon fill="#000000" stroke="#000000" points="639.9883,-205.8129 643.4883,-215.8129 646.9883,-205.813 639.9883,-205.8129"/>
</g>
<!-- SidebarComponent  -->
<g id="node16" class="node">
<title>SidebarComponent </title>
<polygon fill="#fb8072" stroke="#000000" points="505.596,-252 378.404,-252 378.404,-216 505.596,-216 505.596,-252"/>
<text text-anchor="middle" x="442" y="-229.8" font-family="Times,serif" font-size="14.00" fill="#000000">SidebarComponent </text>
</g>
<!-- SharedModule&#45;&gt;SidebarComponent  -->
<g id="edge15" class="edge">
<title>SharedModule&#45;&gt;SidebarComponent </title>
<path fill="none" stroke="#000000" stroke-dasharray="5,2" d="M707.4959,-177C626.5201,-177 474.6534,-177 474.6534,-177 474.6534,-177 474.6534,-205.9648 474.6534,-205.9648"/>
<polygon fill="#000000" stroke="#000000" points="471.1535,-205.9648 474.6534,-215.9648 478.1535,-205.9649 471.1535,-205.9648"/>
</g>
<!-- AppRoutingModule -->
<g id="node10" class="node">
<title>AppRoutingModule</title>
<polygon fill="#8dd3c7" stroke="#000000" points="277.2744,-122 274.2744,-126 253.2744,-126 250.2744,-122 148.7256,-122 148.7256,-86 277.2744,-86 277.2744,-122"/>
<text text-anchor="middle" x="213" y="-99.8" font-family="Times,serif" font-size="14.00" fill="#000000">AppRoutingModule</text>
</g>
<!-- AppRoutingModule&#45;&gt;SharedModule -->
<g id="edge9" class="edge">
<title>AppRoutingModule&#45;&gt;SharedModule</title>
<path fill="none" stroke="#000000" d="M213,-122.2222C213,-140.8285 213,-167 213,-167 213,-167 697.7642,-167 697.7642,-167"/>
<polygon fill="#000000" stroke="#000000" points="697.7642,-170.5001 707.7642,-167 697.7641,-163.5001 697.7642,-170.5001"/>
</g>
<!-- MaterialModule -->
<g id="node11" class="node">
<title>MaterialModule</title>
<polygon fill="#8dd3c7" stroke="#000000" points="130.4706,-122 127.4706,-126 106.4706,-126 103.4706,-122 23.5294,-122 23.5294,-86 130.4706,-86 130.4706,-122"/>
<text text-anchor="middle" x="77" y="-99.8" font-family="Times,serif" font-size="14.00" fill="#000000">MaterialModule</text>
</g>
<!-- MaterialModule&#45;&gt;SharedModule -->
<g id="edge10" class="edge">
<title>MaterialModule&#45;&gt;SharedModule</title>
<path fill="none" stroke="#000000" d="M77,-122.2228C77,-142.3652 77,-172 77,-172 77,-172 697.5483,-172 697.5483,-172"/>
<polygon fill="#000000" stroke="#000000" points="697.5484,-175.5001 707.5483,-172 697.5483,-168.5001 697.5484,-175.5001"/>
</g>
</g>
</svg>
