<?xml version="1.0" encoding="UTF-8" standalone="no"?>
<!DOCTYPE svg PUBLIC "-//W3C//DTD SVG 1.1//EN"
 "http://www.w3.org/Graphics/SVG/1.1/DTD/svg11.dtd">
<!-- Generated by graphviz version 2.40.1 (20161225.0304)
 -->
<!-- Title: dependencies Pages: 1 -->
<svg width="934pt" height="211pt"
 viewBox="0.00 0.00 934.00 211.00" xmlns="http://www.w3.org/2000/svg" xmlns:xlink="http://www.w3.org/1999/xlink">
<g id="graph0" class="graph" transform="scale(1 1) rotate(0) translate(4 207)">
<title>dependencies</title>
<polygon fill="#ffffff" stroke="transparent" points="-4,4 -4,-207 930,-207 930,4 -4,4"/>
<text text-anchor="start" x="442.0091" y="-42.4" font-family="sans-serif" font-weight="bold" font-size="14.00" fill="#000000">Legend</text>
<polygon fill="#ffffb3" stroke="transparent" points="229,-10 229,-30 249,-30 249,-10 229,-10"/>
<text text-anchor="start" x="252.629" y="-15.4" font-family="sans-serif" font-size="14.00" fill="#000000"> &#160;Declarations</text>
<polygon fill="#8dd3c7" stroke="transparent" points="342,-10 342,-30 362,-30 362,-10 342,-10"/>
<text text-anchor="start" x="365.7251" y="-15.4" font-family="sans-serif" font-size="14.00" fill="#000000"> &#160;Module</text>
<polygon fill="#80b1d3" stroke="transparent" points="428,-10 428,-30 448,-30 448,-10 428,-10"/>
<text text-anchor="start" x="451.7812" y="-15.4" font-family="sans-serif" font-size="14.00" fill="#000000"> &#160;Bootstrap</text>
<polygon fill="#fdb462" stroke="transparent" points="525,-10 525,-30 545,-30 545,-10 525,-10"/>
<text text-anchor="start" x="548.6732" y="-15.4" font-family="sans-serif" font-size="14.00" fill="#000000"> &#160;Providers</text>
<polygon fill="#fb8072" stroke="transparent" points="621,-10 621,-30 641,-30 641,-10 621,-10"/>
<text text-anchor="start" x="644.7258" y="-15.4" font-family="sans-serif" font-size="14.00" fill="#000000"> &#160;Exports</text>
<g id="clust1" class="cluster">
<title>cluster_SettingsModule</title>
<polygon fill="none" stroke="#000000" stroke-dasharray="1,5" points="8,-70 8,-195 918,-195 918,-70 8,-70"/>
</g>
<g id="clust2" class="cluster">
<title>cluster_SettingsModule_declarations</title>
<polygon fill="none" stroke="#000000" points="138,-78 138,-130 910,-130 910,-78 138,-78"/>
</g>
<g id="clust7" class="cluster">
<title>cluster_SettingsModule_imports</title>
<polygon fill="none" stroke="#000000" points="16,-78 16,-130 130,-130 130,-78 16,-78"/>
</g>
<!-- ApplicationSettingsComponent -->
<g id="node1" class="node">
<title>ApplicationSettingsComponent</title>
<polygon fill="#ffffb3" stroke="#000000" points="902.0447,-122 709.9553,-122 709.9553,-86 902.0447,-86 902.0447,-122"/>
<text text-anchor="middle" x="806" y="-99.8" font-family="Times,serif" font-size="14.00" fill="#000000">ApplicationSettingsComponent</text>
</g>
<!-- SettingsModule -->
<g id="node5" class="node">
<title>SettingsModule</title>
<polygon fill="#8dd3c7" stroke="#000000" points="438.1639,-187 435.1639,-191 414.1639,-191 411.1639,-187 333.8361,-187 333.8361,-151 438.1639,-151 438.1639,-187"/>
<text text-anchor="middle" x="386" y="-164.8" font-family="Times,serif" font-size="14.00" fill="#000000">SettingsModule</text>
</g>
<!-- ApplicationSettingsComponent&#45;&gt;SettingsModule -->
<g id="edge1" class="edge">
<title>ApplicationSettingsComponent&#45;&gt;SettingsModule</title>
<path fill="none" stroke="#000000" d="M806,-122.2843C806,-143.3211 806,-175 806,-175 806,-175 448.3441,-175 448.3441,-175"/>
<polygon fill="#000000" stroke="#000000" points="448.3441,-171.5001 438.3441,-175 448.344,-178.5001 448.3441,-171.5001"/>
</g>
<!-- ComponentSettingsComponent -->
<g id="node2" class="node">
<title>ComponentSettingsComponent</title>
<polygon fill="#ffffb3" stroke="#000000" points="691.7785,-122 500.2215,-122 500.2215,-86 691.7785,-86 691.7785,-122"/>
<text text-anchor="middle" x="596" y="-99.8" font-family="Times,serif" font-size="14.00" fill="#000000">ComponentSettingsComponent</text>
</g>
<!-- ComponentSettingsComponent&#45;&gt;SettingsModule -->
<g id="edge2" class="edge">
<title>ComponentSettingsComponent&#45;&gt;SettingsModule</title>
<path fill="none" stroke="#000000" d="M596,-122.0225C596,-139.3734 596,-163 596,-163 596,-163 448.1799,-163 448.1799,-163"/>
<polygon fill="#000000" stroke="#000000" points="448.18,-159.5001 438.1799,-163 448.1799,-166.5001 448.18,-159.5001"/>
</g>
<!-- NoticeBoardSettingComponent -->
<g id="node3" class="node">
<title>NoticeBoardSettingComponent</title>
<polygon fill="#ffffb3" stroke="#000000" points="482.0308,-122 289.9692,-122 289.9692,-86 482.0308,-86 482.0308,-122"/>
<text text-anchor="middle" x="386" y="-99.8" font-family="Times,serif" font-size="14.00" fill="#000000">NoticeBoardSettingComponent</text>
</g>
<!-- NoticeBoardSettingComponent&#45;&gt;SettingsModule -->
<g id="edge3" class="edge">
<title>NoticeBoardSettingComponent&#45;&gt;SettingsModule</title>
<path fill="none" stroke="#000000" d="M386,-122.1061C386,-122.1061 386,-140.991 386,-140.991"/>
<polygon fill="#000000" stroke="#000000" points="382.5001,-140.9909 386,-150.991 389.5001,-140.991 382.5001,-140.9909"/>
</g>
<!-- SettingsComponent -->
<g id="node4" class="node">
<title>SettingsComponent</title>
<polygon fill="#ffffb3" stroke="#000000" points="272.4468,-122 145.5532,-122 145.5532,-86 272.4468,-86 272.4468,-122"/>
<text text-anchor="middle" x="209" y="-99.8" font-family="Times,serif" font-size="14.00" fill="#000000">SettingsComponent</text>
</g>
<!-- SettingsComponent&#45;&gt;SettingsModule -->
<g id="edge4" class="edge">
<title>SettingsComponent&#45;&gt;SettingsModule</title>
<path fill="none" stroke="#000000" d="M209,-122.0225C209,-139.3734 209,-163 209,-163 209,-163 323.3734,-163 323.3734,-163"/>
<polygon fill="#000000" stroke="#000000" points="323.3734,-166.5001 333.3734,-163 323.3734,-159.5001 323.3734,-166.5001"/>
</g>
<!-- SharedModule -->
<g id="node6" class="node">
<title>SharedModule</title>
<polygon fill="#8dd3c7" stroke="#000000" points="122.4231,-122 119.4231,-126 98.4231,-126 95.4231,-122 23.5769,-122 23.5769,-86 122.4231,-86 122.4231,-122"/>
<text text-anchor="middle" x="73" y="-99.8" font-family="Times,serif" font-size="14.00" fill="#000000">SharedModule</text>
</g>
<!-- SharedModule&#45;&gt;SettingsModule -->
<g id="edge5" class="edge">
<title>SharedModule&#45;&gt;SettingsModule</title>
<path fill="none" stroke="#000000" d="M73,-122.2843C73,-143.3211 73,-175 73,-175 73,-175 323.6108,-175 323.6108,-175"/>
<polygon fill="#000000" stroke="#000000" points="323.6109,-178.5001 333.6108,-175 323.6108,-171.5001 323.6109,-178.5001"/>
</g>
</g>
</svg>
