<?xml version="1.0" encoding="UTF-8" standalone="no"?>
<!DOCTYPE svg PUBLIC "-//W3C//DTD SVG 1.1//EN"
 "http://www.w3.org/Graphics/SVG/1.1/DTD/svg11.dtd">
<!-- Generated by graphviz version 2.40.1 (20161225.0304)
 -->
<!-- Title: dependencies Pages: 1 -->
<svg width="536pt" height="211pt"
 viewBox="0.00 0.00 536.00 211.00" xmlns="http://www.w3.org/2000/svg" xmlns:xlink="http://www.w3.org/1999/xlink">
<g id="graph0" class="graph" transform="scale(1 1) rotate(0) translate(4 207)">
<title>dependencies</title>
<polygon fill="#ffffff" stroke="transparent" points="-4,4 -4,-207 532,-207 532,4 -4,4"/>
<text text-anchor="start" x="243.0091" y="-42.4" font-family="sans-serif" font-weight="bold" font-size="14.00" fill="#000000">Legend</text>
<polygon fill="#ffffb3" stroke="transparent" points="30,-10 30,-30 50,-30 50,-10 30,-10"/>
<text text-anchor="start" x="53.629" y="-15.4" font-family="sans-serif" font-size="14.00" fill="#000000"> &#160;Declarations</text>
<polygon fill="#8dd3c7" stroke="transparent" points="143,-10 143,-30 163,-30 163,-10 143,-10"/>
<text text-anchor="start" x="166.7251" y="-15.4" font-family="sans-serif" font-size="14.00" fill="#000000"> &#160;Module</text>
<polygon fill="#80b1d3" stroke="transparent" points="229,-10 229,-30 249,-30 249,-10 229,-10"/>
<text text-anchor="start" x="252.7812" y="-15.4" font-family="sans-serif" font-size="14.00" fill="#000000"> &#160;Bootstrap</text>
<polygon fill="#fdb462" stroke="transparent" points="326,-10 326,-30 346,-30 346,-10 326,-10"/>
<text text-anchor="start" x="349.6732" y="-15.4" font-family="sans-serif" font-size="14.00" fill="#000000"> &#160;Providers</text>
<polygon fill="#fb8072" stroke="transparent" points="422,-10 422,-30 442,-30 442,-10 422,-10"/>
<text text-anchor="start" x="445.7258" y="-15.4" font-family="sans-serif" font-size="14.00" fill="#000000"> &#160;Exports</text>
<g id="clust1" class="cluster">
<title>cluster_RccDashboardModule</title>
<polygon fill="none" stroke="#000000" stroke-dasharray="1,5" points="8,-70 8,-195 520,-195 520,-70 8,-70"/>
</g>
<g id="clust2" class="cluster">
<title>cluster_RccDashboardModule_declarations</title>
<polygon fill="none" stroke="#000000" points="138,-78 138,-130 512,-130 512,-78 138,-78"/>
</g>
<g id="clust5" class="cluster">
<title>cluster_RccDashboardModule_imports</title>
<polygon fill="none" stroke="#000000" points="16,-78 16,-130 130,-130 130,-78 16,-78"/>
</g>
<!-- RccDashboardComponent -->
<g id="node1" class="node">
<title>RccDashboardComponent</title>
<polygon fill="#ffffb3" stroke="#000000" points="503.7394,-122 340.2606,-122 340.2606,-86 503.7394,-86 503.7394,-122"/>
<text text-anchor="middle" x="422" y="-99.8" font-family="Times,serif" font-size="14.00" fill="#000000">RccDashboardComponent</text>
</g>
<!-- RccDashboardModule -->
<g id="node3" class="node">
<title>RccDashboardModule</title>
<polygon fill="#8dd3c7" stroke="#000000" points="304.9566,-187 301.9566,-191 280.9566,-191 277.9566,-187 163.0434,-187 163.0434,-151 304.9566,-151 304.9566,-187"/>
<text text-anchor="middle" x="234" y="-164.8" font-family="Times,serif" font-size="14.00" fill="#000000">RccDashboardModule</text>
</g>
<!-- RccDashboardComponent&#45;&gt;RccDashboardModule -->
<g id="edge1" class="edge">
<title>RccDashboardComponent&#45;&gt;RccDashboardModule</title>
<path fill="none" stroke="#000000" d="M422,-122.1061C422,-141.3391 422,-169 422,-169 422,-169 315.0747,-169 315.0747,-169"/>
<polygon fill="#000000" stroke="#000000" points="315.0748,-165.5001 305.0747,-169 315.0747,-172.5001 315.0748,-165.5001"/>
</g>
<!-- RccManagementComponent -->
<g id="node2" class="node">
<title>RccManagementComponent</title>
<polygon fill="#ffffb3" stroke="#000000" points="322.1825,-122 145.8175,-122 145.8175,-86 322.1825,-86 322.1825,-122"/>
<text text-anchor="middle" x="234" y="-99.8" font-family="Times,serif" font-size="14.00" fill="#000000">RccManagementComponent</text>
</g>
<!-- RccManagementComponent&#45;&gt;RccDashboardModule -->
<g id="edge2" class="edge">
<title>RccManagementComponent&#45;&gt;RccDashboardModule</title>
<path fill="none" stroke="#000000" d="M234,-122.1061C234,-122.1061 234,-140.991 234,-140.991"/>
<polygon fill="#000000" stroke="#000000" points="230.5001,-140.9909 234,-150.991 237.5001,-140.991 230.5001,-140.9909"/>
</g>
<!-- SharedModule -->
<g id="node4" class="node">
<title>SharedModule</title>
<polygon fill="#8dd3c7" stroke="#000000" points="122.4231,-122 119.4231,-126 98.4231,-126 95.4231,-122 23.5769,-122 23.5769,-86 122.4231,-86 122.4231,-122"/>
<text text-anchor="middle" x="73" y="-99.8" font-family="Times,serif" font-size="14.00" fill="#000000">SharedModule</text>
</g>
<!-- SharedModule&#45;&gt;RccDashboardModule -->
<g id="edge3" class="edge">
<title>SharedModule&#45;&gt;RccDashboardModule</title>
<path fill="none" stroke="#000000" d="M73,-122.1061C73,-141.3391 73,-169 73,-169 73,-169 152.9144,-169 152.9144,-169"/>
<polygon fill="#000000" stroke="#000000" points="152.9144,-172.5001 162.9144,-169 152.9144,-165.5001 152.9144,-172.5001"/>
</g>
</g>
</svg>
