<?xml version="1.0" encoding="UTF-8" standalone="no"?>
<!DOCTYPE svg PUBLIC "-//W3C//DTD SVG 1.1//EN"
 "http://www.w3.org/Graphics/SVG/1.1/DTD/svg11.dtd">
<!-- Generated by graphviz version 2.40.1 (20161225.0304)
 -->
<!-- Title: dependencies Pages: 1 -->
<svg width="712pt" height="211pt"
 viewBox="0.00 0.00 712.00 211.00" xmlns="http://www.w3.org/2000/svg" xmlns:xlink="http://www.w3.org/1999/xlink">
<g id="graph0" class="graph" transform="scale(1 1) rotate(0) translate(4 207)">
<title>dependencies</title>
<polygon fill="#ffffff" stroke="transparent" points="-4,4 -4,-207 708,-207 708,4 -4,4"/>
<text text-anchor="start" x="331.0091" y="-42.4" font-family="sans-serif" font-weight="bold" font-size="14.00" fill="#000000">Legend</text>
<polygon fill="#ffffb3" stroke="transparent" points="118,-10 118,-30 138,-30 138,-10 118,-10"/>
<text text-anchor="start" x="141.629" y="-15.4" font-family="sans-serif" font-size="14.00" fill="#000000"> &#160;Declarations</text>
<polygon fill="#8dd3c7" stroke="transparent" points="231,-10 231,-30 251,-30 251,-10 231,-10"/>
<text text-anchor="start" x="254.7251" y="-15.4" font-family="sans-serif" font-size="14.00" fill="#000000"> &#160;Module</text>
<polygon fill="#80b1d3" stroke="transparent" points="317,-10 317,-30 337,-30 337,-10 317,-10"/>
<text text-anchor="start" x="340.7812" y="-15.4" font-family="sans-serif" font-size="14.00" fill="#000000"> &#160;Bootstrap</text>
<polygon fill="#fdb462" stroke="transparent" points="414,-10 414,-30 434,-30 434,-10 414,-10"/>
<text text-anchor="start" x="437.6732" y="-15.4" font-family="sans-serif" font-size="14.00" fill="#000000"> &#160;Providers</text>
<polygon fill="#fb8072" stroke="transparent" points="510,-10 510,-30 530,-30 530,-10 510,-10"/>
<text text-anchor="start" x="533.7258" y="-15.4" font-family="sans-serif" font-size="14.00" fill="#000000"> &#160;Exports</text>
<g id="clust1" class="cluster">
<title>cluster_TeamDashboardModule</title>
<polygon fill="none" stroke="#000000" stroke-dasharray="1,5" points="8,-70 8,-195 696,-195 696,-70 8,-70"/>
</g>
<g id="clust2" class="cluster">
<title>cluster_TeamDashboardModule_declarations</title>
<polygon fill="none" stroke="#000000" points="138,-78 138,-130 688,-130 688,-78 138,-78"/>
</g>
<g id="clust6" class="cluster">
<title>cluster_TeamDashboardModule_imports</title>
<polygon fill="none" stroke="#000000" points="16,-78 16,-130 130,-130 130,-78 16,-78"/>
</g>
<!-- AddUserFormComponent -->
<g id="node1" class="node">
<title>AddUserFormComponent</title>
<polygon fill="#ffffb3" stroke="#000000" points="680.1993,-122 517.8007,-122 517.8007,-86 680.1993,-86 680.1993,-122"/>
<text text-anchor="middle" x="599" y="-99.8" font-family="Times,serif" font-size="14.00" fill="#000000">AddUserFormComponent</text>
</g>
<!-- TeamDashboardModule -->
<g id="node4" class="node">
<title>TeamDashboardModule</title>
<polygon fill="#8dd3c7" stroke="#000000" points="396.0632,-187 393.0632,-191 372.0632,-191 369.0632,-187 243.9368,-187 243.9368,-151 396.0632,-151 396.0632,-187"/>
<text text-anchor="middle" x="320" y="-164.8" font-family="Times,serif" font-size="14.00" fill="#000000">TeamDashboardModule</text>
</g>
<!-- AddUserFormComponent&#45;&gt;TeamDashboardModule -->
<g id="edge1" class="edge">
<title>AddUserFormComponent&#45;&gt;TeamDashboardModule</title>
<path fill="none" stroke="#000000" d="M599,-122.1061C599,-141.3391 599,-169 599,-169 599,-169 406.238,-169 406.238,-169"/>
<polygon fill="#000000" stroke="#000000" points="406.238,-165.5001 396.238,-169 406.2379,-172.5001 406.238,-165.5001"/>
</g>
<!-- TeamDashboardComponent -->
<g id="node2" class="node">
<title>TeamDashboardComponent</title>
<polygon fill="#ffffb3" stroke="#000000" points="499.8459,-122 326.1541,-122 326.1541,-86 499.8459,-86 499.8459,-122"/>
<text text-anchor="middle" x="413" y="-99.8" font-family="Times,serif" font-size="14.00" fill="#000000">TeamDashboardComponent</text>
</g>
<!-- TeamDashboardComponent&#45;&gt;TeamDashboardModule -->
<g id="edge2" class="edge">
<title>TeamDashboardComponent&#45;&gt;TeamDashboardModule</title>
<path fill="none" stroke="#000000" d="M361.0544,-122.1061C361.0544,-122.1061 361.0544,-140.991 361.0544,-140.991"/>
<polygon fill="#000000" stroke="#000000" points="357.5544,-140.9909 361.0544,-150.991 364.5544,-140.991 357.5544,-140.9909"/>
</g>
<!-- TeamManagerComponent -->
<g id="node3" class="node">
<title>TeamManagerComponent</title>
<polygon fill="#ffffb3" stroke="#000000" points="308.4538,-122 145.5462,-122 145.5462,-86 308.4538,-86 308.4538,-122"/>
<text text-anchor="middle" x="227" y="-99.8" font-family="Times,serif" font-size="14.00" fill="#000000">TeamManagerComponent</text>
</g>
<!-- TeamManagerComponent&#45;&gt;TeamDashboardModule -->
<g id="edge3" class="edge">
<title>TeamManagerComponent&#45;&gt;TeamDashboardModule</title>
<path fill="none" stroke="#000000" d="M276.2227,-122.1061C276.2227,-122.1061 276.2227,-140.991 276.2227,-140.991"/>
<polygon fill="#000000" stroke="#000000" points="272.7227,-140.9909 276.2227,-150.991 279.7227,-140.991 272.7227,-140.9909"/>
</g>
<!-- SharedModule -->
<g id="node5" class="node">
<title>SharedModule</title>
<polygon fill="#8dd3c7" stroke="#000000" points="122.4231,-122 119.4231,-126 98.4231,-126 95.4231,-122 23.5769,-122 23.5769,-86 122.4231,-86 122.4231,-122"/>
<text text-anchor="middle" x="73" y="-99.8" font-family="Times,serif" font-size="14.00" fill="#000000">SharedModule</text>
</g>
<!-- SharedModule&#45;&gt;TeamDashboardModule -->
<g id="edge4" class="edge">
<title>SharedModule&#45;&gt;TeamDashboardModule</title>
<path fill="none" stroke="#000000" d="M73,-122.1061C73,-141.3391 73,-169 73,-169 73,-169 233.8764,-169 233.8764,-169"/>
<polygon fill="#000000" stroke="#000000" points="233.8764,-172.5001 243.8764,-169 233.8764,-165.5001 233.8764,-172.5001"/>
</g>
</g>
</svg>
