<?xml version="1.0" encoding="UTF-8" standalone="no"?>
<!DOCTYPE svg PUBLIC "-//W3C//DTD SVG 1.1//EN"
 "http://www.w3.org/Graphics/SVG/1.1/DTD/svg11.dtd">
<!-- Generated by graphviz version 2.40.1 (20161225.0304)
 -->
<!-- Title: dependencies Pages: 1 -->
<svg width="1932pt" height="284pt"
 viewBox="0.00 0.00 1932.00 284.00" xmlns="http://www.w3.org/2000/svg" xmlns:xlink="http://www.w3.org/1999/xlink">
<g id="graph0" class="graph" transform="scale(1 1) rotate(0) translate(4 280)">
<title>dependencies</title>
<polygon fill="#ffffff" stroke="transparent" points="-4,4 -4,-280 1928,-280 1928,4 -4,4"/>
<text text-anchor="start" x="941.0091" y="-42.4" font-family="sans-serif" font-weight="bold" font-size="14.00" fill="#000000">Legend</text>
<polygon fill="#ffffb3" stroke="transparent" points="728,-10 728,-30 748,-30 748,-10 728,-10"/>
<text text-anchor="start" x="751.629" y="-15.4" font-family="sans-serif" font-size="14.00" fill="#000000"> &#160;Declarations</text>
<polygon fill="#8dd3c7" stroke="transparent" points="841,-10 841,-30 861,-30 861,-10 841,-10"/>
<text text-anchor="start" x="864.7251" y="-15.4" font-family="sans-serif" font-size="14.00" fill="#000000"> &#160;Module</text>
<polygon fill="#80b1d3" stroke="transparent" points="927,-10 927,-30 947,-30 947,-10 927,-10"/>
<text text-anchor="start" x="950.7812" y="-15.4" font-family="sans-serif" font-size="14.00" fill="#000000"> &#160;Bootstrap</text>
<polygon fill="#fdb462" stroke="transparent" points="1024,-10 1024,-30 1044,-30 1044,-10 1024,-10"/>
<text text-anchor="start" x="1047.6732" y="-15.4" font-family="sans-serif" font-size="14.00" fill="#000000"> &#160;Providers</text>
<polygon fill="#fb8072" stroke="transparent" points="1120,-10 1120,-30 1140,-30 1140,-10 1120,-10"/>
<text text-anchor="start" x="1143.7258" y="-15.4" font-family="sans-serif" font-size="14.00" fill="#000000"> &#160;Exports</text>
<g id="clust1" class="cluster">
<title>cluster_AppModule</title>
<polygon fill="none" stroke="#000000" stroke-dasharray="1,5" points="8,-70 8,-268 1916,-268 1916,-70 8,-70"/>
</g>
<g id="clust2" class="cluster">
<title>cluster_AppModule_declarations</title>
<polygon fill="none" stroke="#000000" points="1017,-78 1017,-130 1908,-130 1908,-78 1017,-78"/>
</g>
<g id="clust9" class="cluster">
<title>cluster_AppModule_imports</title>
<polygon fill="none" stroke="#000000" points="16,-78 16,-130 1009,-130 1009,-78 16,-78"/>
</g>
<g id="clust11" class="cluster">
<title>cluster_AppModule_bootstrap</title>
<polygon fill="none" stroke="#000000" points="875,-208 875,-260 999,-260 999,-208 875,-208"/>
</g>
<!-- AboutComponent -->
<g id="node1" class="node">
<title>AboutComponent</title>
<polygon fill="#ffffb3" stroke="#000000" points="1900.3301,-122 1783.6699,-122 1783.6699,-86 1900.3301,-86 1900.3301,-122"/>
<text text-anchor="middle" x="1842" y="-99.8" font-family="Times,serif" font-size="14.00" fill="#000000">AboutComponent</text>
</g>
<!-- AppModule -->
<g id="node7" class="node">
<title>AppModule</title>
<polygon fill="#8dd3c7" stroke="#000000" points="978.6571,-187 975.6571,-191 954.6571,-191 951.6571,-187 895.3429,-187 895.3429,-151 978.6571,-151 978.6571,-187"/>
<text text-anchor="middle" x="937" y="-164.8" font-family="Times,serif" font-size="14.00" fill="#000000">AppModule</text>
</g>
<!-- AboutComponent&#45;&gt;AppModule -->
<g id="edge1" class="edge">
<title>AboutComponent&#45;&gt;AppModule</title>
<path fill="none" stroke="#000000" d="M1842,-122.0908C1842,-145.1328 1842,-182 1842,-182 1842,-182 988.835,-182 988.835,-182"/>
<polygon fill="#000000" stroke="#000000" points="988.835,-178.5001 978.835,-182 988.835,-185.5001 988.835,-178.5001"/>
</g>
<!-- ActivityLogComponent -->
<g id="node2" class="node">
<title>ActivityLogComponent</title>
<polygon fill="#ffffb3" stroke="#000000" points="1765.7688,-122 1616.2312,-122 1616.2312,-86 1765.7688,-86 1765.7688,-122"/>
<text text-anchor="middle" x="1691" y="-99.8" font-family="Times,serif" font-size="14.00" fill="#000000">ActivityLogComponent</text>
</g>
<!-- ActivityLogComponent&#45;&gt;AppModule -->
<g id="edge2" class="edge">
<title>ActivityLogComponent&#45;&gt;AppModule</title>
<path fill="none" stroke="#000000" d="M1691,-122.0449C1691,-143.6623 1691,-177 1691,-177 1691,-177 988.8828,-177 988.8828,-177"/>
<polygon fill="#000000" stroke="#000000" points="988.8828,-173.5001 978.8828,-177 988.8827,-180.5001 988.8828,-173.5001"/>
</g>
<!-- AppComponent -->
<g id="node3" class="node">
<title>AppComponent</title>
<polygon fill="#ffffb3" stroke="#000000" points="1597.9399,-122 1492.0601,-122 1492.0601,-86 1597.9399,-86 1597.9399,-122"/>
<text text-anchor="middle" x="1545" y="-99.8" font-family="Times,serif" font-size="14.00" fill="#000000">AppComponent</text>
</g>
<!-- AppComponent&#45;&gt;AppModule -->
<g id="edge3" class="edge">
<title>AppComponent&#45;&gt;AppModule</title>
<path fill="none" stroke="#000000" d="M1545,-122.2228C1545,-142.3652 1545,-172 1545,-172 1545,-172 988.7903,-172 988.7903,-172"/>
<polygon fill="#000000" stroke="#000000" points="988.7903,-168.5001 978.7903,-172 988.7903,-175.5001 988.7903,-168.5001"/>
</g>
<!-- LoginComponent -->
<g id="node4" class="node">
<title>LoginComponent</title>
<polygon fill="#ffffb3" stroke="#000000" points="1474.2758,-122 1359.7242,-122 1359.7242,-86 1474.2758,-86 1474.2758,-122"/>
<text text-anchor="middle" x="1417" y="-99.8" font-family="Times,serif" font-size="14.00" fill="#000000">LoginComponent</text>
</g>
<!-- LoginComponent&#45;&gt;AppModule -->
<g id="edge4" class="edge">
<title>LoginComponent&#45;&gt;AppModule</title>
<path fill="none" stroke="#000000" d="M1417,-122.2222C1417,-140.8285 1417,-167 1417,-167 1417,-167 988.7572,-167 988.7572,-167"/>
<polygon fill="#000000" stroke="#000000" points="988.7572,-163.5001 978.7572,-167 988.7571,-170.5001 988.7572,-163.5001"/>
</g>
<!-- NoticeBoardComponent -->
<g id="node5" class="node">
<title>NoticeBoardComponent</title>
<polygon fill="#ffffb3" stroke="#000000" points="1341.3613,-122 1188.6387,-122 1188.6387,-86 1341.3613,-86 1341.3613,-122"/>
<text text-anchor="middle" x="1265" y="-99.8" font-family="Times,serif" font-size="14.00" fill="#000000">NoticeBoardComponent</text>
</g>
<!-- NoticeBoardComponent&#45;&gt;AppModule -->
<g id="edge5" class="edge">
<title>NoticeBoardComponent&#45;&gt;AppModule</title>
<path fill="none" stroke="#000000" d="M1265,-122.0336C1265,-139.0597 1265,-162 1265,-162 1265,-162 988.8746,-162 988.8746,-162"/>
<polygon fill="#000000" stroke="#000000" points="988.8746,-158.5001 978.8746,-162 988.8746,-165.5001 988.8746,-158.5001"/>
</g>
<!-- PatchNotesComponent -->
<g id="node6" class="node">
<title>PatchNotesComponent</title>
<polygon fill="#ffffb3" stroke="#000000" points="1170.5912,-122 1025.4088,-122 1025.4088,-86 1170.5912,-86 1170.5912,-122"/>
<text text-anchor="middle" x="1098" y="-99.8" font-family="Times,serif" font-size="14.00" fill="#000000">PatchNotesComponent</text>
</g>
<!-- PatchNotesComponent&#45;&gt;AppModule -->
<g id="edge6" class="edge">
<title>PatchNotesComponent&#45;&gt;AppModule</title>
<path fill="none" stroke="#000000" d="M1098,-122.2396C1098,-137.5706 1098,-157 1098,-157 1098,-157 988.8806,-157 988.8806,-157"/>
<polygon fill="#000000" stroke="#000000" points="988.8806,-153.5001 978.8806,-157 988.8805,-160.5001 988.8806,-153.5001"/>
</g>
<!-- AppComponent  -->
<g id="node15" class="node">
<title>AppComponent </title>
<polygon fill="#80b1d3" stroke="#000000" points="991.439,-252 882.561,-252 882.561,-216 991.439,-216 991.439,-252"/>
<text text-anchor="middle" x="937" y="-229.8" font-family="Times,serif" font-size="14.00" fill="#000000">AppComponent </text>
</g>
<!-- AppModule&#45;&gt;AppComponent  -->
<g id="edge14" class="edge">
<title>AppModule&#45;&gt;AppComponent </title>
<path fill="none" stroke="#000000" stroke-dasharray="1,5" d="M937,-187.1061C937,-187.1061 937,-205.991 937,-205.991"/>
<polygon fill="#000000" stroke="#000000" points="933.5001,-205.9909 937,-215.991 940.5001,-205.991 933.5001,-205.9909"/>
</g>
<!-- AppRoutingModule -->
<g id="node8" class="node">
<title>AppRoutingModule</title>
<polygon fill="#8dd3c7" stroke="#000000" points="1001.2744,-122 998.2744,-126 977.2744,-126 974.2744,-122 872.7256,-122 872.7256,-86 1001.2744,-86 1001.2744,-122"/>
<text text-anchor="middle" x="937" y="-99.8" font-family="Times,serif" font-size="14.00" fill="#000000">AppRoutingModule</text>
</g>
<!-- AppRoutingModule&#45;&gt;AppModule -->
<g id="edge7" class="edge">
<title>AppRoutingModule&#45;&gt;AppModule</title>
<path fill="none" stroke="#000000" d="M937,-122.1061C937,-122.1061 937,-140.991 937,-140.991"/>
<polygon fill="#000000" stroke="#000000" points="933.5001,-140.9909 937,-150.991 940.5001,-140.991 933.5001,-140.9909"/>
</g>
<!-- CoreModule -->
<g id="node9" class="node">
<title>CoreModule</title>
<polygon fill="#8dd3c7" stroke="#000000" points="854.2619,-122 851.2619,-126 830.2619,-126 827.2619,-122 767.7381,-122 767.7381,-86 854.2619,-86 854.2619,-122"/>
<text text-anchor="middle" x="811" y="-99.8" font-family="Times,serif" font-size="14.00" fill="#000000">CoreModule</text>
</g>
<!-- CoreModule&#45;&gt;AppModule -->
<g id="edge8" class="edge">
<title>CoreModule&#45;&gt;AppModule</title>
<path fill="none" stroke="#000000" d="M811,-122.2396C811,-137.5706 811,-157 811,-157 811,-157 885.0438,-157 885.0438,-157"/>
<polygon fill="#000000" stroke="#000000" points="885.0439,-160.5001 895.0438,-157 885.0438,-153.5001 885.0439,-160.5001"/>
</g>
<!-- QueueDashboardModule -->
<g id="node10" class="node">
<title>QueueDashboardModule</title>
<polygon fill="#8dd3c7" stroke="#000000" points="749.2268,-122 746.2268,-126 725.2268,-126 722.2268,-122 592.7732,-122 592.7732,-86 749.2268,-86 749.2268,-122"/>
<text text-anchor="middle" x="671" y="-99.8" font-family="Times,serif" font-size="14.00" fill="#000000">QueueDashboardModule</text>
</g>
<!-- QueueDashboardModule&#45;&gt;AppModule -->
<g id="edge9" class="edge">
<title>QueueDashboardModule&#45;&gt;AppModule</title>
<path fill="none" stroke="#000000" d="M671,-122.0336C671,-139.0597 671,-162 671,-162 671,-162 885.1449,-162 885.1449,-162"/>
<polygon fill="#000000" stroke="#000000" points="885.1449,-165.5001 895.1449,-162 885.1448,-158.5001 885.1449,-165.5001"/>
</g>
<!-- RccDashboardModule -->
<g id="node11" class="node">
<title>RccDashboardModule</title>
<polygon fill="#8dd3c7" stroke="#000000" points="574.9566,-122 571.9566,-126 550.9566,-126 547.9566,-122 433.0434,-122 433.0434,-86 574.9566,-86 574.9566,-122"/>
<text text-anchor="middle" x="504" y="-99.8" font-family="Times,serif" font-size="14.00" fill="#000000">RccDashboardModule</text>
</g>
<!-- RccDashboardModule&#45;&gt;AppModule -->
<g id="edge10" class="edge">
<title>RccDashboardModule&#45;&gt;AppModule</title>
<path fill="none" stroke="#000000" d="M504,-122.2222C504,-140.8285 504,-167 504,-167 504,-167 885.0887,-167 885.0887,-167"/>
<polygon fill="#000000" stroke="#000000" points="885.0887,-170.5001 895.0887,-167 885.0887,-163.5001 885.0887,-170.5001"/>
</g>
<!-- SettingsModule -->
<g id="node12" class="node">
<title>SettingsModule</title>
<polygon fill="#8dd3c7" stroke="#000000" points="415.1639,-122 412.1639,-126 391.1639,-126 388.1639,-122 310.8361,-122 310.8361,-86 415.1639,-86 415.1639,-122"/>
<text text-anchor="middle" x="363" y="-99.8" font-family="Times,serif" font-size="14.00" fill="#000000">SettingsModule</text>
</g>
<!-- SettingsModule&#45;&gt;AppModule -->
<g id="edge11" class="edge">
<title>SettingsModule&#45;&gt;AppModule</title>
<path fill="none" stroke="#000000" d="M363,-122.2228C363,-142.3652 363,-172 363,-172 363,-172 885.257,-172 885.257,-172"/>
<polygon fill="#000000" stroke="#000000" points="885.257,-175.5001 895.257,-172 885.2569,-168.5001 885.257,-175.5001"/>
</g>
<!-- SharedModule -->
<g id="node13" class="node">
<title>SharedModule</title>
<polygon fill="#8dd3c7" stroke="#000000" points="292.4231,-122 289.4231,-126 268.4231,-126 265.4231,-122 193.5769,-122 193.5769,-86 292.4231,-86 292.4231,-122"/>
<text text-anchor="middle" x="243" y="-99.8" font-family="Times,serif" font-size="14.00" fill="#000000">SharedModule</text>
</g>
<!-- SharedModule&#45;&gt;AppModule -->
<g id="edge12" class="edge">
<title>SharedModule&#45;&gt;AppModule</title>
<path fill="none" stroke="#000000" d="M243,-122.0449C243,-143.6623 243,-177 243,-177 243,-177 885.1501,-177 885.1501,-177"/>
<polygon fill="#000000" stroke="#000000" points="885.1501,-180.5001 895.1501,-177 885.15,-173.5001 885.1501,-180.5001"/>
</g>
<!-- TeamDashboardModule -->
<g id="node14" class="node">
<title>TeamDashboardModule</title>
<polygon fill="#8dd3c7" stroke="#000000" points="176.0632,-122 173.0632,-126 152.0632,-126 149.0632,-122 23.9368,-122 23.9368,-86 176.0632,-86 176.0632,-122"/>
<text text-anchor="middle" x="100" y="-99.8" font-family="Times,serif" font-size="14.00" fill="#000000">TeamDashboardModule</text>
</g>
<!-- TeamDashboardModule&#45;&gt;AppModule -->
<g id="edge13" class="edge">
<title>TeamDashboardModule&#45;&gt;AppModule</title>
<path fill="none" stroke="#000000" d="M100,-122.0908C100,-145.1328 100,-182 100,-182 100,-182 885.2067,-182 885.2067,-182"/>
<polygon fill="#000000" stroke="#000000" points="885.2067,-185.5001 895.2067,-182 885.2066,-178.5001 885.2067,-185.5001"/>
</g>
</g>
</svg>
